<svg xmlns="http://www.w3.org/2000/svg" xmlns:xlink="http://www.w3.org/1999/xlink" width="77" height="130" viewBox="0 0 77 130">
  <defs>
    <clipPath id="clip-booking_trip">
      <rect width="77" height="130"/>
    </clipPath>
  </defs>
  <g id="booking_trip" data-name="booking – trip" clip-path="url(#clip-booking_trip)">
    <rect width="77" height="130" fill="none"/>
    <g id="Group_1310" data-name="Group 1310">
      <circle id="Ellipse_71" data-name="Ellipse 71" cx="2.696" cy="2.696" r="2.696" transform="translate(54.565 120)" fill="#3f3d56"/>
      <circle id="Ellipse_72" data-name="Ellipse 72" cx="2.696" cy="2.696" r="2.696" transform="translate(40.481 120)" fill="#3f3d56"/>
      <rect id="Rectangle_161" data-name="Rectangle 161" width="1.199" height="33.116" transform="translate(46.174 57.666)" fill="#3f3d56"/>
      <rect id="Rectangle_162" data-name="Rectangle 162" width="1.199" height="33.116" transform="translate(52.616 57.666)" fill="#3f3d56"/>
      <path id="Path_6804" data-name="Path 6804" d="M745.71,403.558l-.3-.9a5.862,5.862,0,0,1,7.941-.755l-.3,1.35h-1.2s-1.947-1.633-5.243.232Z" transform="translate(-699.243 -344.993)" fill="#3f3d56"/>
      <path id="Path_6828" data-name="Path 6828" d="M721.972,575.288a5.082,5.082,0,0,0-4.645,4.794c-.6,4.645,0,26.222,0,26.222a16.993,16.993,0,0,0,10.339,3c5.695-.449,14.833-2.1,14.833-2.1V581.9a6.612,6.612,0,0,0-6.922-6.639,2.431,2.431,0,0,0-.27.021Z" transform="translate(-676.247 -486.604)" fill="#3c354c"/>
      <circle id="Ellipse_75" data-name="Ellipse 75" cx="2.696" cy="2.696" r="2.696" transform="translate(48.872 120.75)" fill="#3f3d56"/>
      <circle id="Ellipse_76" data-name="Ellipse 76" cx="2.696" cy="2.696" r="2.696" transform="translate(63.556 119.551)" fill="#3f3d56"/>
      <ellipse id="Ellipse_69" data-name="Ellipse 69" cx="7.492" cy="5.844" rx="7.492" ry="5.844" transform="translate(25.248 1.4)" fill="#3f3d56"/>
      <circle id="Ellipse_70" data-name="Ellipse 70" cx="10.789" cy="10.789" r="10.789" transform="translate(36.935 16.233)" fill="#3f3d56"/>
      <rect id="Rectangle_163" data-name="Rectangle 163" width="10.789" height="13.785" transform="translate(40.232 52.946)" fill="#fbbebe"/>
      <rect id="Rectangle_164" data-name="Rectangle 164" width="3.297" height="6.593" transform="translate(55.216 49.049)" fill="#fbbebe"/>
      <path id="Path_6805" data-name="Path 6805" d="M584.533,740.01l-1.348,4.046s-.6,3,1.348,3.146a25.2,25.2,0,0,0,5.1-.449,4.321,4.321,0,0,0,0-2.547c-.449-1.2-1.8-4.5-1.8-4.5Z" transform="translate(-542.877 -620.01)" fill="#3c354c"/>
      <path id="Path_6806" data-name="Path 6806" d="M640.015,742.09s-2.1,5.245-.449,6.144,3.9.149,5.695.9S652,748.085,652,748.085s.6-1.648-2.7-2.1c0,0-3.587-2.7-3.587-3.3s-2.1-.6-2.1-.6Z" transform="translate(-588.171 -621.94)" fill="#3c354c"/>
      <path id="Path_6807" data-name="Path 6807" d="M569.848,424.193s-12.286,2.547-13.783,1.8-3,10.2-3,10.2a52.962,52.962,0,0,0,1.5,15.434c2.1,8.84,0,13.187,0,13.187s.3,8.391,2.549,12.288a16.513,16.513,0,0,1,2.247,7.492s4.343.449,4.5-.6a20.037,20.037,0,0,1-1.5-8.091c.3-3.9-.9-11.389-.9-11.389s1.948-9.44,1.648-13.028,1.05-11.238,1.8-9.89a43.551,43.551,0,0,1,2.7,9.291c0,1.35.755,10.337,1.2,10.938s.3,2.4.149,3.3a54.425,54.425,0,0,0,.6,11.238c.748,3.6.151,7.641.3,8.242s4.5.149,4.645-.9c0,0,.6-6.442.9-7.341s.442-12.3.442-12.3.3-8.84.6-9.739.755-20.229-1.2-22.469-1.2-7.941-1.2-7.941Z" transform="translate(-518.453 -363.828)" fill="#3f3d56"/>
      <path id="Path_6808" data-name="Path 6808" d="M581.081,268.962a18.658,18.658,0,0,0-1.461,3.236,6.212,6.212,0,0,0-.142,3.5,8.686,8.686,0,0,0,.967,2.02,6.936,6.936,0,0,0,1.221,1.631c1.133,1.035,2.779,1.242,4.309,1.4a2.182,2.182,0,0,0,.791-.013,1.494,1.494,0,0,0,.566-.31,4.5,4.5,0,0,0,1.22-2.266,37.385,37.385,0,0,0,1.25-6.068,2.81,2.81,0,0,0,0-.982,4.929,4.929,0,0,0-.914-1.493,3.809,3.809,0,0,1-.65-1.964,1.6,1.6,0,0,0-.215-.98,1.32,1.32,0,0,0-.508-.313c-.893-.378-1.784-.755-2.679-1.118-.54-.223-1.51-.816-2.077-.378-.485.378-.251,1.254-.459,1.779A24.938,24.938,0,0,1,581.081,268.962Z" transform="translate(-539.786 -234.701)" fill="#fbbebe"/>
      <path id="Path_6809" data-name="Path 6809" d="M581.081,268.962a18.658,18.658,0,0,0-1.461,3.236,6.212,6.212,0,0,0-.142,3.5,8.686,8.686,0,0,0,.967,2.02,6.936,6.936,0,0,0,1.221,1.631c1.133,1.035,2.779,1.242,4.309,1.4a2.182,2.182,0,0,0,.791-.013,1.494,1.494,0,0,0,.566-.31,4.5,4.5,0,0,0,1.22-2.266,37.385,37.385,0,0,0,1.25-6.068,2.81,2.81,0,0,0,0-.982,4.929,4.929,0,0,0-.914-1.493,3.809,3.809,0,0,1-.65-1.964,1.6,1.6,0,0,0-.215-.98,1.32,1.32,0,0,0-.508-.313c-.893-.378-1.784-.755-2.679-1.118-.54-.223-1.51-.816-2.077-.378-.485.378-.251,1.254-.459,1.779A24.938,24.938,0,0,1,581.081,268.962Z" transform="translate(-539.786 -234.701)" opacity="0.1"/>
      <circle id="Ellipse_73" data-name="Ellipse 73" cx="5.245" cy="5.245" r="5.245" transform="translate(41.954 24.101)" fill="#fbbebe"/>
      <path id="Path_6810" data-name="Path 6810" d="M584.47,326.18a8.373,8.373,0,0,1-5.425.451,29.853,29.853,0,0,1-4.679-1.335,5.019,5.019,0,0,0-.44,2.088,57.231,57.231,0,0,0,.517,6.488c.21,2.753,0,5.566.708,8.232a2.266,2.266,0,0,1,.506-1.235,2.8,2.8,0,0,1,.848-.623,6.76,6.76,0,0,1,4.641-.578,4.521,4.521,0,0,0,2.734.257,2.658,2.658,0,0,0,1.171-1.154A9.482,9.482,0,0,0,586.075,336a39.263,39.263,0,0,0,.71-7.649c.019-.685.313-2.723-.255-3.225-.4-.349-.516.149-.8.41A3.67,3.67,0,0,1,584.47,326.18Z" transform="translate(-535.43 -283.605)" fill="#f2f2f2"/>
      <path id="Path_6811" data-name="Path 6811" d="M554.051,282.805a1.131,1.131,0,0,0-1.252.043c-.385.232-.7.553-1.087.765-1.084.587-2.54.157-3.569.84-.967.644-1.133,1.969-1.208,3.129a49.717,49.717,0,0,1-1.059,8.778,7,7,0,0,0-.344,2.307,6.123,6.123,0,0,0,.313,1.3l.929,2.9a15.351,15.351,0,0,1,.912,4.131,15.172,15.172,0,0,1-.617,4.109,48.188,48.188,0,0,0-1.271,8.1,5.7,5.7,0,0,0,.283,2.677,4.659,4.659,0,0,0,1.952,2c.808.489,1.686.867,2.477,1.386,1.588,1.044,2.862,2.689,4.72,3.117a6.42,6.42,0,0,0,2.6-.053S557.346,306.3,556,303.155s-2.547-16.782-2.547-17.231S554.051,282.805,554.051,282.805Z" transform="translate(-512.393 -249.235)" fill="#6c63ff"/>
      <path id="Path_6812" data-name="Path 6812" d="M621.785,287.36s7.09,0,8.14,3.746-3,9.89-3,9.89,1.648,12.137,2.4,13.336.451,3.587.451,3.587a9.915,9.915,0,0,1,.3,5.1,50.331,50.331,0,0,1-2.847,7.492s-3,0-3.746,1.8-.9-7.792-.9-7.792-2.7-17.531-2.547-18.579.9-9.741,1.2-12.139S622.187,288.259,621.785,287.36Z" transform="translate(-572.835 -253.069)" fill="#6c63ff"/>
      <path id="Path_6813" data-name="Path 6813" d="M652.8,300.06s3.448,1.048,3.448,2.247,1.055,7.641,1.055,9.739-.449,2.4,0,3.147-4.794.449-4.794.449l-.954-8.54Z" transform="translate(-598.413 -263.371)" fill="#6c63ff"/>
      <path id="Path_6814" data-name="Path 6814" d="M547.649,354.323s6.744.449,7.943-.451,6.293,1.2,6.742,2.4-7.194,1.348-8.391,1.348-6.894,1.8-6.894,1.8Z" transform="translate(-513.636 -306.845)" fill="#a0616a"/>
      <path id="Path_6815" data-name="Path 6815" d="M468.179,724.059s-3.144,7.93-1.51,8.874,18.855.272,18.855.272,2.868-1.775-.41-3.006a11.241,11.241,0,0,1-4.509-1.229,26.287,26.287,0,0,1-3.827-3.142s-.136-3.006-1.229-2.322a2.806,2.806,0,0,0-1.229,1.913Z" transform="translate(-448.05 -606.783)" fill="#3f3d56"/>
      <path id="Path_6816" data-name="Path 6816" d="M468.179,724.059s-3.144,7.93-1.51,8.874,18.855.272,18.855.272,2.868-1.775-.41-3.006a11.241,11.241,0,0,1-4.509-1.229,26.287,26.287,0,0,1-3.827-3.142s-.136-3.006-1.229-2.322a2.806,2.806,0,0,0-1.229,1.913Z" transform="translate(-448.05 -606.783)" opacity="0.1"/>
      <path id="Path_6817" data-name="Path 6817" d="M441.687,736.638s-3.446,8.685-1.648,9.739,20.679.3,20.679.3,3.147-1.947-.449-3.3a12.341,12.341,0,0,1-4.945-1.348,28.514,28.514,0,0,1-4.2-3.451s-.149-3.3-1.348-2.547a3.074,3.074,0,0,0-1.348,2.1Z" transform="translate(-426.409 -616.938)" fill="#3f3d56"/>
      <path id="Path_6818" data-name="Path 6818" d="M491.854,431.6l-2.1,18.881s-.755,8.991-3,10.938c0,0,0,2.847-.755,3.746L484.954,477s1.5,4.343,1.35,5.1.6,3.146.449,3.446-7.194,0-7.194,0l1.5-24.124L485.7,427.86Z" transform="translate(-458.889 -367.041)" fill="#3c354c"/>
      <path id="Path_6819" data-name="Path 6819" d="M491.854,431.6l-2.1,18.881s-.755,8.991-3,10.938c0,0,0,2.847-.755,3.746L484.954,477s1.5,4.343,1.35,5.1.6,3.146.449,3.446-7.194,0-7.194,0l1.5-24.124L485.7,427.86Z" transform="translate(-458.889 -367.041)" opacity="0.1"/>
      <path id="Path_6820" data-name="Path 6820" d="M454.7,427.723s-1.648,15.433-2.4,18.73a42.54,42.54,0,0,0-.9,6.593s-.149,4.8-1.5,6.144a4.046,4.046,0,0,0-1.2,2.993s-1.35,15.133-.6,16.933,1.5,3.3.755,4.494-8.991,1.2-8.991.3,0-1.648-.449-2.1,0-3.3,0-3.3-1.8-13.336-.149-17.231,2.4-14.539,2.4-14.539-1.2-12.137-2.7-14.085.3-8.84.3-8.84Z" transform="translate(-425.477 -363.764)" fill="#3c354c"/>
      <path id="Path_6821" data-name="Path 6821" d="M502.49,172.132a2.016,2.016,0,0,0,.97.827,28.983,28.983,0,0,1,5.853,4.707,6.879,6.879,0,0,1,.274-4.65,2.4,2.4,0,0,0,.346-1.563,2.011,2.011,0,0,0-.755-.91,23.51,23.51,0,0,0-2.317-1.58c-.566-.336-1.714-1.229-2.358-1.133a5.928,5.928,0,0,1-.432,2.455C503.976,170.484,502.556,172.283,502.49,172.132Z" transform="translate(-477.489 -156.101)" fill="#a0616a"/>
      <circle id="Ellipse_74" data-name="Ellipse 74" cx="6.144" cy="6.144" r="6.144" transform="translate(26.52 5.669)" fill="#a0616a"/>
      <path id="Path_6822" data-name="Path 6822" d="M450.767,198.3s1.048-5.245-1.948-7.043-6.442-3.9-6.442-3.9-1.05-.151-1.5,2.1c0,0-8.54,1.648-9.44,9.739s.6,19.929.6,19.929-1.348,10.339-3,15.883c0,0-1.35,1.2,4.645-.6s16.481,5.1,16.481,5.1,1.05-1.05,1.05-1.8,1.2-5.1,1.2-5.1,1.048-18.43,1.5-20.528S452.115,198.6,450.767,198.3Z" transform="translate(-417.803 -171.949)" fill="#3f3d56"/>
      <path id="Path_6823" data-name="Path 6823" d="M454.911,217.075s8.24-4.8,6.591-10.94-5.243-8.091-5.243-8.091-5.844-1.949-10.789,4.343l.3,2.847s5.394-10.938,11.238-4.046S454.911,217.075,454.911,217.075Z" transform="translate(-431.236 -180.386)" fill="#6c63ff"/>
      <path id="Path_6824" data-name="Path 6824" d="M384.945,223.559v24.57l-1.531,8.381-.716,3.906h-5.238l-7.341-2.7V239.593s6.142-12.139,8.091-14.386S384.945,223.559,384.945,223.559Z" transform="translate(-370.112 -201.256)" fill="#6c63ff"/>
      <path id="Path_6825" data-name="Path 6825" d="M49.46,292.66l-.714,3.907H43.5l-7.341-2.7Z" transform="translate(-36.16 -237.403)" opacity="0.1"/>
      <path id="Path_6826" data-name="Path 6826" d="M105.2,197.344l12.886-15.734L106.7,197.944l-1.2.3Z" transform="translate(-92.164 -147.321)" fill="#6c63ff"/>
      <path id="Path_6827" data-name="Path 6827" d="M506.531,118.192a2.562,2.562,0,0,1,1.206-.321,2.277,2.277,0,0,0,1.191-.355c.58-.446.623-1.307,1.048-1.9.614-.863,1.839-.967,2.9-.925a3.211,3.211,0,0,0,1.888-.283,2.891,2.891,0,0,0,1-1.675,2.255,2.255,0,0,0-.189-2.236c-.378-.389-.989-.466-1.416-.808a3.842,3.842,0,0,1-.865-1.441,3.9,3.9,0,0,0-1.256-1.573,4.748,4.748,0,0,0-2.811-.674,22.086,22.086,0,0,1-2.936.019,9,9,0,0,0-2.385-.245,3.415,3.415,0,0,0-2.349,1.807,10.044,10.044,0,0,0-.919,2.913l-.567,2.725a7.244,7.244,0,0,0-.215,2.564c.279,1.767,1.843,3.172,1.95,4.956a3.042,3.042,0,0,1,1.858-2.207.587.587,0,0,1,.378-.047c.155.051.245.206.344.336.257.342,1.063.859,1.51.617C506.323,119.221,506.017,118.541,506.531,118.192Z" transform="translate(-475.315 -105.745)" fill="#3f3d56"/>
      <path id="Path_6829" data-name="Path 6829" d="M452.931,313.268s-1.05,6.591,3.295,5.993c0,0,2.249-.3,2.549,0s11.387-1.648,12.886-3.3c0,0,1.8-.6,2.7.3s9.89,1.8,7.2-.9a13.7,13.7,0,0,0-6.892-3.3l-5.695.3s-3,.9-4.794,0-6.9-.589-6.9-.589Z" transform="translate(-437.198 -272.833)" fill="#a0616a"/>
      <path id="Path_6830" data-name="Path 6830" d="M456.972,209.59s-6.742.755-6.742,10.488v12.435s3.746-1.648,4.5-1.5,3.746-1.948,3.746-1.948,3.446-8.089,3.146-10.336S461.468,209.888,456.972,209.59Z" transform="translate(-435.097 -189.983)" fill="#3f3d56"/>
      <path id="Path_6831" data-name="Path 6831" d="M286.532,231.61l-6.742,4.8,4.2.449,5.844-4.945Z" transform="translate(-233.79 -187.88)" fill="#3f3d56"/>
      <path id="Path_6832" data-name="Path 6832" d="M639.1,355.463s1.648,5.1-.6,6.593-5.995-5.245-5.995-5.245-4.046-4.794-1.348-5.844,3.8,3.521,3.8,3.521l3.538,3.072Z" transform="translate(-581.108 -304.539)" fill="#fbbebe"/>
      <ellipse id="Ellipse_77" data-name="Ellipse 77" cx="5.993" cy="3.822" rx="5.993" ry="3.822" transform="translate(41.731 21.628)" fill="#3f3d56"/>
      <circle id="Ellipse_78" data-name="Ellipse 78" cx="4.345" cy="4.345" r="4.345" transform="translate(44.427 11.89)" fill="#3f3d56"/>
      <ellipse id="Ellipse_79" data-name="Ellipse 79" cx="5.768" cy="2.996" rx="5.768" ry="2.996" transform="translate(26.896 4.997)" fill="#3f3d56"/>
      <ellipse id="Ellipse_80" data-name="Ellipse 80" cx="2.022" cy="5.021" rx="2.022" ry="5.021" transform="translate(25.248 3.496)" fill="#3f3d56"/>
    </g>
  </g>
</svg>
