<svg xmlns="http://www.w3.org/2000/svg" xmlns:xlink="http://www.w3.org/1999/xlink" width="77" height="130" viewBox="0 0 77 130">
  <defs>
    <linearGradient id="linear-gradient" x1="0.5" y1="1" x2="0.5" gradientUnits="objectBoundingBox">
      <stop offset="0" stop-color="gray" stop-opacity="0.251"/>
      <stop offset="0.54" stop-color="gray" stop-opacity="0.122"/>
      <stop offset="1" stop-color="gray" stop-opacity="0.102"/>
    </linearGradient>
    <clipPath id="clip-single_trip">
      <rect width="77" height="130"/>
    </clipPath>
  </defs>
  <g id="single_trip" data-name="single – trip" clip-path="url(#clip-single_trip)">
    <rect width="77" height="130" fill="none"/>
    <g id="Group_1309" data-name="Group 1309" transform="translate(-256.963 -39.229)">
      <ellipse id="Ellipse_29" data-name="Ellipse 29" cx="0.171" cy="0.286" rx="0.171" ry="0.286" transform="translate(256.963 72.466) rotate(-18.22)" fill="#6c63ff" opacity="0.1"/>
      <ellipse id="Ellipse_30" data-name="Ellipse 30" cx="0.171" cy="0.286" rx="0.171" ry="0.286" transform="translate(257.646 72.241) rotate(-18.22)" fill="#6c63ff" opacity="0.1"/>
      <ellipse id="Ellipse_31" data-name="Ellipse 31" cx="0.171" cy="0.286" rx="0.171" ry="0.286" transform="translate(258.949 71.812) rotate(-18.22)" fill="#6c63ff" opacity="0.1"/>
      <ellipse id="Ellipse_32" data-name="Ellipse 32" cx="0.171" cy="0.286" rx="0.171" ry="0.286" transform="translate(262.627 70.733) rotate(-18.22)" fill="#6c63ff" opacity="0.1"/>
      <ellipse id="Ellipse_33" data-name="Ellipse 33" cx="0.171" cy="0.286" rx="0.171" ry="0.286" transform="translate(263.164 70.723) rotate(-18.072)" fill="#6c63ff" opacity="0.1"/>
      <ellipse id="Ellipse_34" data-name="Ellipse 34" cx="0.171" cy="0.286" rx="0.171" ry="0.286" transform="translate(263.946 70.362) rotate(-18.22)" fill="#6c63ff" opacity="0.1"/>
      <ellipse id="Ellipse_35" data-name="Ellipse 35" cx="0.171" cy="0.286" rx="0.171" ry="0.286" transform="translate(264.621 70.139) rotate(-18.22)" fill="#6c63ff" opacity="0.1"/>
      <ellipse id="Ellipse_36" data-name="Ellipse 36" cx="0.171" cy="0.286" rx="0.171" ry="0.286" transform="translate(265.283 69.921) rotate(-18.22)" fill="#6c63ff" opacity="0.1"/>
      <ellipse id="Ellipse_37" data-name="Ellipse 37" cx="0.171" cy="0.286" rx="0.171" ry="0.286" transform="translate(265.882 69.724) rotate(-18.22)" fill="#6c63ff" opacity="0.1"/>
      <ellipse id="Ellipse_38" data-name="Ellipse 38" cx="0.171" cy="0.286" rx="0.171" ry="0.286" transform="translate(266.526 69.512) rotate(-18.22)" fill="#6c63ff" opacity="0.1"/>
      <ellipse id="Ellipse_39" data-name="Ellipse 39" cx="0.171" cy="0.286" rx="0.171" ry="0.286" transform="translate(267.199 69.29) rotate(-18.22)" fill="#6c63ff" opacity="0.1"/>
      <ellipse id="Ellipse_40" data-name="Ellipse 40" cx="0.171" cy="0.286" rx="0.171" ry="0.286" transform="translate(267.797 69.093) rotate(-18.22)" fill="#6c63ff" opacity="0.1"/>
      <ellipse id="Ellipse_41" data-name="Ellipse 41" cx="0.171" cy="0.286" rx="0.171" ry="0.286" transform="translate(271.145 68.229) rotate(-18.22)" fill="#6c63ff" opacity="0.1"/>
      <ellipse id="Ellipse_42" data-name="Ellipse 42" cx="0.171" cy="0.286" rx="0.171" ry="0.286" transform="translate(272.451 67.799) rotate(-18.22)" fill="#6c63ff" opacity="0.1"/>
      <ellipse id="Ellipse_43" data-name="Ellipse 43" cx="0.171" cy="0.286" rx="0.171" ry="0.286" transform="translate(273.105 67.584) rotate(-18.22)" fill="#6c63ff" opacity="0.1"/>
      <ellipse id="Ellipse_44" data-name="Ellipse 44" cx="0.171" cy="0.286" rx="0.171" ry="0.286" transform="translate(273.742 67.374) rotate(-18.22)" fill="#6c63ff" opacity="0.1"/>
      <ellipse id="Ellipse_45" data-name="Ellipse 45" cx="0.171" cy="0.286" rx="0.171" ry="0.286" transform="translate(274.367 67.167) rotate(-18.22)" fill="#6c63ff" opacity="0.1"/>
      <ellipse id="Ellipse_46" data-name="Ellipse 46" cx="0.171" cy="0.286" rx="0.171" ry="0.286" transform="translate(275.076 66.936) rotate(-18.22)" fill="#6c63ff" opacity="0.1"/>
      <ellipse id="Ellipse_47" data-name="Ellipse 47" cx="0.171" cy="0.286" rx="0.171" ry="0.286" transform="translate(271.819 68.006) rotate(-18.22)" fill="#6c63ff" opacity="0.1"/>
      <ellipse id="Ellipse_48" data-name="Ellipse 48" cx="0.171" cy="0.286" rx="0.171" ry="0.286" transform="translate(258.348 72.01) rotate(-18.22)" fill="#6c63ff" opacity="0.1"/>
      <rect id="Rectangle_146" data-name="Rectangle 146" width="0.632" height="1.101" transform="matrix(0.971, -0.24, 0.24, 0.971, 268.659, 68.844)" fill="#6c63ff" opacity="0.1"/>
      <rect id="Rectangle_147" data-name="Rectangle 147" width="0.632" height="1.101" transform="matrix(0.971, -0.24, 0.24, 0.971, 275.885, 66.774)" fill="#6c63ff" opacity="0.1"/>
      <path id="Path_6659" data-name="Path 6659" d="M380.2,185.21l-.814.214.407.614,1.207-.3Z" transform="translate(-100.576 -119.927)" fill="#6c63ff" opacity="0.1"/>
      <path id="Path_6660" data-name="Path 6660" d="M508.427,224.583l-1.76.459-.668-.414.444-.261A5.239,5.239,0,0,1,508.427,224.583Z" transform="translate(-226.081 -159.344)" fill="#6c63ff" opacity="0.1"/>
      <path id="Path_6662" data-name="Path 6662" d="M285.3,213.63l-7.734,2.088-.457.914Z" transform="translate(-16.551 -143.274)" fill="#6c63ff" opacity="0.1"/>
      <path id="Path_6670" data-name="Path 6670" d="M566.878,145.29l-.416-1.192.155-.164-.823-4.055a1.522,1.522,0,0,0,.034-.435,1.859,1.859,0,0,0-.357-1.19l-.164-.8a.985.985,0,0,1,.012-.191c.337-4.735-1.688-10.461-1.688-10.461v-5.269l-1.563-10.309h0c.03-5.156-1.994-6.961-1.994-6.961s-.166-.039-.436-.121c-.536-1.108-1.448-2.856-2.939-5.663a11.158,11.158,0,0,0-2.142-2.877,8.475,8.475,0,0,0-4.225-2.34,3.935,3.935,0,0,1,.448-.43c.357-.287.753-.518,1.087-.826a4.054,4.054,0,0,0,.989-1.533,4.725,4.725,0,0,0,.269-2.652,3.374,3.374,0,0,0-1.489-2.188,3.653,3.653,0,0,1-.628-.409,2.486,2.486,0,0,1-.505-.912,8.538,8.538,0,0,0-1.985-2.936,2.192,2.192,0,0,0-1.307-.728,3.335,3.335,0,0,0-1.5.439A6.263,6.263,0,0,1,540.5,80.9a5.442,5.442,0,0,0-2.424-.973,2.084,2.084,0,0,0-1.546.794c.016-.034.03-.068.048-.1a2.543,2.543,0,0,0-.612,1.287v.048a4.62,4.62,0,0,0,1.389,3.605c-.077.1-.153.193-.225.293a7.232,7.232,0,0,0-1.169,6.045.971.971,0,0,0-.134.073l-1.007.682-2.292,1.981-1.025.693c1.071-.789,2.606-2.074,2.238-2.368-.507-.405-5.629,1.071-6.8,2.44a18.364,18.364,0,0,0-1.737,2.763l-.041-.079c-.048.064-.1.141-.161.223l-.023-.043c-.239.321-.616.871-1.033,1.494-.152.225-.309.46-.464.7-1.622,1.822-4.74,5.494-5.192,7.257,0,0-3.068,4.974-2.331,7.432s3.712,2.938,5.86,2.188c1.533-.535,5.335-2.368,7.382-3.373l-.2,2.895s-1.674,11.894-2.982,16.72a7.776,7.776,0,0,1-.637,1.771,1.194,1.194,0,0,0-.07.127c-1.324,2.522-3.336,16.688-3.336,16.688s-1.785,1.888,1.656,2.129c2.37.164,3.791,2.183,4.444,3.42v.027c-.07,1.894-.1,3.509-.057,4.524a68.461,68.461,0,0,1-.462,9.169,11.333,11.333,0,0,0,.1,3.193A99.412,99.412,0,0,0,530.127,186a17.226,17.226,0,0,1,.644,7.193,21.9,21.9,0,0,0,2.3,5.035,1.042,1.042,0,0,0,.287.227c-.014.109-.029.22-.048.332a6,6,0,0,1-1.462,3.181c-1.306,1.358-3.118,3.213-3.33,4.562-.1.65.164,1.182,1.03,1.492a11.915,11.915,0,0,0,6.136,0s2.331-.839,2.331-1.678.951-.839.951-.839l1.533-1.071a11.628,11.628,0,0,0,0-1.665,5.964,5.964,0,0,0-.987-3.243,3.408,3.408,0,0,1-.491-.825,3.318,3.318,0,0,1-.116-.339,4.445,4.445,0,0,1,1.16-.132c.277.178,1.1-4.765-1.012-7.373a5,5,0,0,1-1.1-4.946s-.277-9.531-1.656-10.339a14.939,14.939,0,0,0,1.012-4.316c-.091-1.439-.552-4.316,0-4.946.26-.3,1.333-2.32,2.385-4.358.062-.12.125-.239.178-.357.648.045,1.362.071,2.106.057.009.118.02.236.03.357a12.391,12.391,0,0,0,1.46,5.2v9.081a24.781,24.781,0,0,0,1.2,3.687c.552,1.08-1.717,8.54-1.717,8.54s-1.26,9.126,0,10.272a2.215,2.215,0,0,0,.921.428c.02.123.038.248.055.375a12.234,12.234,0,0,1,.157,3.313,8.77,8.77,0,0,0,.014,2.973c.027.15.046.232.046.232s-.582,2.907,3.438,2.49,4.448-1.679,4.448-1.679a1.01,1.01,0,0,0-.009-.112,7.6,7.6,0,0,0-.114-.855,9.265,9.265,0,0,0-1.487-3.525,2.8,2.8,0,0,1-.536-1.5c0-.357-.023-.746-.043-1.135,0-.12-.012-.239-.02-.357.289-.02.462-.036.462-.036a13.557,13.557,0,0,0,1.2-6.564,32.236,32.236,0,0,1,1.012-8.271s.277-6.473,0-7.373-.584-5.988.123-6.681c.489-.48,1.125-6.377,1.469-9.949.012-.121.023-.239.034-.357.9-.036,1.473-.041,1.473-.041s.1-2.643.187-6.247l.391-.148c-.168.27.012,1,1.315.634,1.68-.471,3.912-.876,3.912-.876s1.2-.855,1.249-1.462a6.816,6.816,0,0,1,.207-.917c2.618-1.044,4.771-1.915,4.771-1.915S568.473,147.837,566.878,145.29Zm-9.172-15.076.318,2.538-.892.275-1.879.128c-.523-4.749.357-12.742.357-12.742l.159-.1C556.562,123.517,557.706,130.214,557.706,130.214Zm-9.383-33.088c-.039-.091-.077-.178-.116-.286l.179.275A.479.479,0,0,0,548.323,97.125Zm6.989,36.467-.032-.252.616-.13.973-.1Zm-19.349-35.02c-.262.062-.535.13-.794.207l.046-.027.764-.455a2.2,2.2,0,0,0-.016.266Zm-8.658,6.614a1.962,1.962,0,0,1-.921.27l1.41-2.731a6.931,6.931,0,0,0,.441-.771,2.358,2.358,0,0,1,1.271-.127s.341-.077.867-.205a5.666,5.666,0,0,0-.339.478A21.523,21.523,0,0,1,527.305,105.187Zm29.078,48.482h0l.443-.17C556.636,153.638,556.478,153.711,556.383,153.67Z" transform="translate(-234.164 -40.7)" fill="url(#linear-gradient)"/>
      <path id="Path_6671" data-name="Path 6671" d="M634.982,163.43c-.568.334-.585,1.76-.5,2.9.063.837.179,1.522.179,1.522l-3.693,8.978a68.749,68.749,0,0,1-1.39-9.252,2.118,2.118,0,0,1,.1-.664C630.333,164.86,633.953,163.71,634.982,163.43Z" transform="translate(-327.604 -109.298)" fill="#67647e"/>
      <path id="Path_6672" data-name="Path 6672" d="M660.123,163s-.1.023-.273.071A.536.536,0,0,1,660.123,163Z" transform="translate(-352.472 -108.945)" fill="#67647e"/>
      <path id="Path_6673" data-name="Path 6673" d="M600.646,737.43l-1.487,1.071s-.923,0-.923.833-2.26,1.665-2.26,1.665a11.307,11.307,0,0,1-5.951,0,1.275,1.275,0,0,1-1-1.481c.205-1.344,1.963-3.181,3.229-4.528a5.973,5.973,0,0,0,1.417-3.156,9.426,9.426,0,0,0,.1-2.258l5.444-.387a3.6,3.6,0,0,0,0,2.551,3.314,3.314,0,0,0,.477.817,6.033,6.033,0,0,1,.957,3.213A11.761,11.761,0,0,1,600.646,737.43Z" transform="translate(-294.275 -574.081)" fill="#67647e"/>
      <path id="Path_6674" data-name="Path 6674" d="M678.507,743.185s-.416,1.249-4.314,1.667-3.339-2.47-3.339-2.47-.02-.082-.045-.23a8.879,8.879,0,0,1-.014-2.952,12.619,12.619,0,0,0-.152-3.288c-.2-1.438-.473-2.722-.473-2.722l6.04.446s.105,1.23.166,2.472c.02.387.036.775.041,1.128a2.818,2.818,0,0,0,.521,1.49,9.311,9.311,0,0,1,1.442,3.5,7.983,7.983,0,0,1,.111.85C678.5,743.151,678.507,743.185,678.507,743.185Z" transform="translate(-360.95 -577.367)" fill="#67647e"/>
      <path id="Path_6675" data-name="Path 6675" d="M600.646,767.753l-1.487,1.071s-.923,0-.923.833-2.26,1.665-2.26,1.665a11.307,11.307,0,0,1-5.951,0,1.275,1.275,0,0,1-1-1.481c.08,0,.157.011.221.012,1.06.034,2.092.319,3.147.414a15.644,15.644,0,0,0,1.806.029,6.313,6.313,0,0,0,.892-.07,6.515,6.515,0,0,0,2.013-.859,1.141,1.141,0,0,0,.4-.314,1.535,1.535,0,0,0,.178-.478,3.317,3.317,0,0,1,1.574-1.878,6.858,6.858,0,0,1,1.387-.6A11.761,11.761,0,0,1,600.646,767.753Z" transform="translate(-294.275 -604.403)" fill="#67647e"/>
      <path id="Path_6676" data-name="Path 6676" d="M681.448,784.433s-.416,1.249-4.314,1.667-3.339-2.47-3.339-2.47-.02-.082-.045-.23c.179.093.33.179.4.218.357.209.676.5,1.048.691a4.828,4.828,0,0,0,2.97.178c.473-.071.946-.143,1.417-.23a3.584,3.584,0,0,0,1.037-.307,6.19,6.19,0,0,0,.7-.475,7.972,7.972,0,0,1,.111.85C681.444,784.4,681.448,784.433,681.448,784.433Z" transform="translate(-363.891 -618.616)" fill="#67647e"/>
      <path id="Path_6677" data-name="Path 6677" d="M600.646,767.753l-1.487,1.071s-.923,0-.923.833-2.26,1.665-2.26,1.665a11.307,11.307,0,0,1-5.951,0,1.275,1.275,0,0,1-1-1.481c.08,0,.157.011.221.012,1.06.034,2.092.319,3.147.414a15.644,15.644,0,0,0,1.806.029,6.313,6.313,0,0,0,.892-.07,6.515,6.515,0,0,0,2.013-.859,1.141,1.141,0,0,0,.4-.314,1.535,1.535,0,0,0,.178-.478,3.317,3.317,0,0,1,1.574-1.878,6.858,6.858,0,0,1,1.387-.6A11.761,11.761,0,0,1,600.646,767.753Z" transform="translate(-294.275 -604.403)" opacity="0.1"/>
      <path id="Path_6678" data-name="Path 6678" d="M681.448,784.433s-.416,1.249-4.314,1.667-3.339-2.47-3.339-2.47-.02-.082-.045-.23c.179.093.33.179.4.218.357.209.676.5,1.048.691a4.828,4.828,0,0,0,2.97.178c.473-.071.946-.143,1.417-.23a3.584,3.584,0,0,0,1.037-.307,6.19,6.19,0,0,0,.7-.475,7.972,7.972,0,0,1,.111.85C681.444,784.4,681.448,784.433,681.448,784.433Z" transform="translate(-363.891 -618.616)" opacity="0.1"/>
      <path id="Path_6679" data-name="Path 6679" d="M620.694,729.19a3.6,3.6,0,0,0,0,2.551c-1.562.266-4.473.8-5.544.095a9.429,9.429,0,0,0,.1-2.258Z" transform="translate(-315.75 -574.081)" opacity="0.1"/>
      <path id="Path_6680" data-name="Path 6680" d="M676.436,736.108a22.378,22.378,0,0,1-5.733-.2c-.2-1.438-.473-2.722-.473-2.722l6.04.446S676.371,734.866,676.436,736.108Z" transform="translate(-360.999 -577.367)" opacity="0.1"/>
      <path id="Path_6681" data-name="Path 6681" d="M609.484,416.545s-.093,1.115-.241,2.677c-.334,3.545-.949,9.4-1.428,9.874-.685.687-.387,5.738-.12,6.631s0,7.318,0,7.318a32.67,32.67,0,0,0-.982,8.21,13.7,13.7,0,0,1-1.16,6.515s-5.89.535-7.109-.6,0-10.195,0-10.195,2.2-7.407,1.665-8.478a24.935,24.935,0,0,1-1.16-3.659v-9.013a12.616,12.616,0,0,1-1.415-5.165,27.175,27.175,0,0,1-.012-4.562s-1.108,2.267-2.238,4.508c-1.021,2.026-2.06,4.03-2.32,4.326-.535.625-.089,3.48,0,4.908a15.071,15.071,0,0,1-.981,4.284c1.339.8,1.606,10.263,1.606,10.263a5.049,5.049,0,0,0,1.071,4.908c2.052,2.588,1.249,7.5.982,7.318s-5.711,1.339-6.782,0a21.994,21.994,0,0,1-2.231-5,17.475,17.475,0,0,0-.625-7.139,100.855,100.855,0,0,1-2.4-11.291,11.507,11.507,0,0,1-.1-3.17,69.539,69.539,0,0,0,.448-9.1c-.041-1.008-.013-2.611.055-4.491.23-6.443.926-16.124.926-16.124l4.851-3.268,3.195-2.167.782.12,14.568,2.244.566,7.186Z" transform="translate(-289.696 -299.422)" fill="#444053"/>
      <path id="Path_6682" data-name="Path 6682" d="M592.473,407l-.255,1.4s-2.142,10.263-2.588,15.528-2.32,3.748-2.32,3.748a8.346,8.346,0,0,0-.6-1.278c.23-6.443.926-16.124.926-16.124Z" transform="translate(-292.386 -309.396)" opacity="0.1"/>
      <path id="Path_6683" data-name="Path 6683" d="M658.163,140.521s-9.995,8-8.149,6.395c1.01-.882.323-4.64-.505-7.853-.682-2.65-1.458-4.931-1.458-4.931s8.724-8.162,8.091-1.488a14.292,14.292,0,0,0,.3,5.206C657.049,140.011,658.163,140.521,658.163,140.521Z" transform="translate(-342.778 -81.851)" fill="#efb7b9"/>
      <path id="Path_6684" data-name="Path 6684" d="M653.609,176.94l-6.336,4.953-1.845-2.053s-1.576-.684-1.7.089-.564,5.533.357,5.979a5.779,5.779,0,0,0,3.154.6c1.041-.148,2.2-1.31,2.975-1.756s3.629-2.766,3.629-2.766l1.428-1.992Z" transform="translate(-339.056 -120.397)" opacity="0.1"/>
      <path id="Path_6685" data-name="Path 6685" d="M653.609,177.94l-6.336,4.953-1.845-2.053s-1.576-.684-1.7.089-.564,5.533.357,5.979a5.779,5.779,0,0,0,3.154.6c1.041-.148,2.2-1.31,2.975-1.756s3.629-2.766,3.629-2.766l1.428-1.992Z" transform="translate(-339.056 -121.218)" fill="#a36468"/>
      <path id="Path_6686" data-name="Path 6686" d="M650.785,417.071s-.093,1.115-.241,2.677a44.859,44.859,0,0,0-8.446,1.007,14.656,14.656,0,0,1-3.259.427,27.155,27.155,0,0,1-.013-4.562s-1.108,2.267-2.238,4.508a23.588,23.588,0,0,1-2.879-.373l1.191-15.469s-.039-5.192.157-9.786l14.568,2.244.566,7.186Z" transform="translate(-330.997 -299.948)" opacity="0.1"/>
      <path id="Path_6687" data-name="Path 6687" d="M668.05,183.668s4.328-4.732,5.354-3.98a6.6,6.6,0,0,1,1.69,2.583l-3.52,3.866Z" transform="translate(-359.208 -122.588)" opacity="0.1"/>
      <path id="Path_6688" data-name="Path 6688" d="M669.05,182.668s4.328-4.732,5.354-3.98a6.605,6.605,0,0,1,1.69,2.583l-3.52,3.866Z" transform="translate(-360.03 -121.766)" fill="#a36468"/>
      <path id="Path_6689" data-name="Path 6689" d="M648.94,191.891l2.488-3.132s-.394-2.961-1.306-2.583-1.182,1.894-1.182,1.894Z" transform="translate(-343.509 -127.957)" opacity="0.1"/>
      <path id="Path_6690" data-name="Path 6690" d="M647.88,190.731l2.488-3.132s-.393-2.961-1.306-2.583-1.182,1.894-1.182,1.894Z" transform="translate(-342.638 -127.004)" fill="#a36468"/>
      <path id="Path_6691" data-name="Path 6691" d="M627.433,185.69s-5.124,5.533-8.183,5.9c-.278.034-.553.08-.828.136-.8.157-2.54,0-2.263-4.574l-.387-.81-2.379,1.458-.8,6.543-1.428,16.777L609.05,229.8s6.484-.625,8.3,1.012,2.32-8.924,2.32-8.924l4.967-21.418,5.3-13.773Z" transform="translate(-310.739 -127.585)" opacity="0.1"/>
      <path id="Path_6692" data-name="Path 6692" d="M629.932,190.727l-5.3,13.773-4.967,21.418s-.507,10.559-2.32,8.924a5.578,5.578,0,0,0-2.886-.98,26.169,26.169,0,0,0-4.448-.1c-.593.032-.966.068-.966.068l2.111-18.682,1.428-16.777.8-6.543,2.379-1.458.387.81c0,.12-.013.237-.018.357-.168,4.226,1.5,4.376,2.281,4.223.275-.055.55-.1.828-.136,2.167-.266,5.369-3.116,7.052-4.755.694-.678,1.132-1.149,1.132-1.149Z" transform="translate(-310.739 -130.896)" opacity="0.1"/>
      <path id="Path_6693" data-name="Path 6693" d="M629.932,187.727l-5.3,13.773-4.967,21.418s-.507,10.559-2.32,8.924a5.577,5.577,0,0,0-2.886-.98,26.172,26.172,0,0,0-4.448-.1c-.593.032-.966.068-.966.068l2.111-18.682,1.428-16.777.8-6.543,2.379-1.458.387.81c0,.12-.013.237-.018.357-.168,4.226,1.5,4.376,2.281,4.223.275-.055.55-.1.828-.136,2.167-.266,5.369-3.116,7.052-4.755.694-.678,1.132-1.149,1.132-1.149Z" transform="translate(-310.739 -128.431)" fill="#e1e7ef"/>
      <path id="Path_6694" data-name="Path 6694" d="M616.159,191.195c0,.12-.013.237-.018.357l-.041.029c-.628.414-1.637,7.407-1.637,7.407l-1.308,17.818-2.409,13.3s-.316,1.515-.73,3.68c-.593.032-.966.068-.966.068l2.111-18.681,1.428-16.777.8-6.543,2.379-1.458Z" transform="translate(-310.739 -131.446)" opacity="0.1"/>
      <path id="Path_6695" data-name="Path 6695" d="M570.151,184.333s-1.428,1.157-2.056,1.571-1.637,7.407-1.637,7.407l-1.308,17.818-2.409,13.3s-2.142,10.263-2.588,15.528-2.32,3.748-2.32,3.748-1.4-4.105-4.73-4.342-1.606-2.113-1.606-2.113,1.951-14.059,3.234-16.563a1.135,1.135,0,0,1,.068-.125,7.8,7.8,0,0,0,.618-1.758c1.269-4.79,2.891-16.6,2.891-16.6l1.012-14.635c2.588-4.225,10.63-4.078,10.63-4.078Z" transform="translate(-263.091 -125.775)" fill="#67647e"/>
      <path id="Path_6696" data-name="Path 6696" d="M654.849,187.7l-5.3,13.773-4.967,21.418s-.507,10.559-2.32,8.924a5.578,5.578,0,0,0-2.886-.98c.021-3.63.132-10.145.655-12.883a36.385,36.385,0,0,0,.564-7.585l6.486-14.13s4.878-6.013,4.908-6.873a3.589,3.589,0,0,0-.775-1.526c.694-.678,1.131-1.149,1.131-1.149Z" transform="translate(-335.655 -128.407)" opacity="0.1"/>
      <path id="Path_6697" data-name="Path 6697" d="M634.71,244.018l1.19-15.469s-.089-11.542.655-15.439a36.372,36.372,0,0,0,.564-7.585l6.486-14.13s4.878-6.013,4.908-6.873-2.556-3.721-2.556-3.721,5.649.66,6.393,3.188,4.819,3.511,4.819,3.511,1.963,1.785,1.933,6.9-6.247,9.131-6.247,9.131-1.041,9.638-.148,13.982.118,25.462.118,25.462a50.674,50.674,0,0,0-9.727,1.042A21.442,21.442,0,0,1,634.71,244.018Z" transform="translate(-331.819 -123.568)" fill="#67647e"/>
      <path id="Path_6698" data-name="Path 6698" d="M684.05,374.8l4.58,17.341s.625,1.547,3.837.357,12.554-5.056,12.554-5.056.832-1.369-.714-3.9l-4.671-13.684Z" transform="translate(-372.353 -278.884)" fill="#b07473"/>
      <path id="Path_6699" data-name="Path 6699" d="M596.84,353.473l7.407-8.144,4.73-1.919,1.94,9.793-8.99,9.772Z" transform="translate(-279.215 -249.891)" fill="#e1e7ef"/>
      <path id="Path_6700" data-name="Path 6700" d="M739.7,455.74a14.684,14.684,0,0,1-2.784,1.339c-.582.043-2.629,3.912-1.763,3.882s2.879-1.071,2.677-.535-1.515,2.142-1.9,1.988-.559,1.18,1.071.714,3.793-.869,3.793-.869,1.16-.848,1.2-1.451,1.05-3.771,1.05-3.771Z" transform="translate(-414.161 -349.436)" fill="#efb7b9"/>
      <path id="Path_6701" data-name="Path 6701" d="M563.49,163.077a37.517,37.517,0,0,1,3.045-5.476c1.139-1.36,6.106-2.824,6.6-2.422s-2.5,2.656-3.034,2.945,3.459,2.975,3.541,3.034,3.123-.269,1.562.757-6.179,2.07-6.179,2.07a2.32,2.32,0,0,0-1.785.428C566.349,165.062,563.49,163.077,563.49,163.077Z" transform="translate(-273.31 -102.464)" fill="#efb7b9"/>
      <path id="Path_6702" data-name="Path 6702" d="M759.347,449.017a12.346,12.346,0,0,1-1.01,2.383,38.906,38.906,0,0,0-4.707-1.808l.473-.73.771-1.189s3.8-.825,4.444,0A1.648,1.648,0,0,1,759.347,449.017Z" transform="translate(-429.514 -342.508)" opacity="0.1"/>
      <path id="Path_6703" data-name="Path 6703" d="M760.347,448.017a12.35,12.35,0,0,1-1.01,2.383,38.906,38.906,0,0,0-4.707-1.808l.473-.73.771-1.189s3.8-.825,4.444,0A1.649,1.649,0,0,1,760.347,448.017Z" transform="translate(-430.336 -341.687)" fill="#a36468"/>
      <path id="Path_6704" data-name="Path 6704" d="M559.028,187.721a6.271,6.271,0,0,1-.482.882c-.687,1.083-1.728,2.361-1.728,2.361s-4.059-1.867-4.059-1.949,1.232-2.022,2.233-3.552c.405-.618.771-1.164,1-1.483,0,0,1.515,3.17,3.011,3.191C559.407,187.177,559.191,187.334,559.028,187.721Z" transform="translate(-264.495 -126.18)" opacity="0.1"/>
      <path id="Path_6705" data-name="Path 6705" d="M558.028,188.721a6.271,6.271,0,0,1-.482.882c-.687,1.083-1.728,2.361-1.728,2.361s-4.059-1.867-4.059-1.949,1.232-2.022,2.233-3.552c.405-.618.771-1.164,1-1.483,0,0,1.515,3.17,3.011,3.191C558.407,188.177,558.191,188.334,558.028,188.721Z" transform="translate(-263.674 -127.002)" fill="#a36468"/>
      <path id="Path_6706" data-name="Path 6706" d="M592.311,339.106l-.521-1.562,7.314-.514-2.732.291-3.48.748.268,1.037Z" transform="translate(-275.067 -244.65)" fill="#b07473"/>
      <path id="Path_6707" data-name="Path 6707" d="M762.524,448.017a6.4,6.4,0,0,0-5.244-.155l.771-1.189s3.8-.825,4.444,0A1.648,1.648,0,0,1,762.524,448.017Z" transform="translate(-432.512 -341.687)" opacity="0.1"/>
      <path id="Path_6708" data-name="Path 6708" d="M743.807,273.7c-.018.259-.034.518-.05.775-.045.787-.075,1.567-.095,2.32-.089,3.488.055,6.365.055,6.365a6.471,6.471,0,0,0-5.711-.268l-.293-5.644v-.1l-.3-2.468-.978-7.973s-1.844-11.066-2.409-11.482,4.194-9.37,4.194-9.37l2.434,1.988,1.517,10.232v5.235S744.134,269,743.807,273.7Z" transform="translate(-413.37 -177.016)" fill="#67647e"/>
      <path id="Path_6709" data-name="Path 6709" d="M558.117,192.749l-.571,1.133c-.687,1.083-1.728,2.361-1.728,2.361s-4.059-1.867-4.059-1.949,1.232-2.022,2.233-3.552c.309-.348.5-.553.5-.553C553.3,193.135,558.117,192.749,558.117,192.749Z" transform="translate(-263.674 -131.282)" opacity="0.1"/>
      <path id="Path_6710" data-name="Path 6710" d="M535.69,193.062l-1.665.835a21.211,21.211,0,0,1-2.647,3.064,1.859,1.859,0,0,1-.892.268l1.754-3.48s-4.819.386-3.628-2.559c0,0-5.385,5.89-5.979,8.271,0,0-2.975,4.937-2.261,7.377s3.6,2.915,5.681,2.172,8.478-4.016,8.478-4.016Z" transform="translate(-237.796 -132.103)" fill="#67647e"/>
      <path id="Path_6711" data-name="Path 6711" d="M554.091,234.19s-4.49,5.028-4.134,5.711S553.853,235.2,554.091,234.19Z" transform="translate(-262.176 -167.429)" opacity="0.1"/>
      <path id="Path_6712" data-name="Path 6712" d="M655.1,157.245s6.32-1.9,9.89,4.967,3.689,7.348,3.511,7.675-7.109-1.487-7.5-.684,3.927,4.105,3.927,4.105L648.21,185.981l7.025-14.928a11.246,11.246,0,0,1,1.862-2.868c1.155-1.292,2.734-3.272,2.174-3.882-.493-.535-1.28-1.933-2.344-3.541C656.152,159.583,654.915,158.252,655.1,157.245Z" transform="translate(-342.909 -104.018)" opacity="0.2"/>
      <path id="Path_6713" data-name="Path 6713" d="M654.919,156.245s6.32-1.9,9.89,4.967,3.689,7.348,3.511,7.675-7.109-1.487-7.5-.684,3.927,4.105,3.927,4.105l-16.54,12.851,6.846-15.107a11.246,11.246,0,0,1,1.862-2.868c1.155-1.292,2.734-3.272,2.174-3.882-.493-.535-1.28-1.933-2.343-3.541C655.974,158.583,654.737,157.252,654.919,156.245Z" transform="translate(-342.909 -103.197)" fill="#67647e"/>
      <path id="Path_6714" data-name="Path 6714" d="M654.919,156.245s6.32-1.9,9.89,4.967,3.689,7.348,3.511,7.675-7.109-1.487-7.5-.684,3.927,4.105,3.927,4.105l-16.54,12.851,7.175-15.833a6.273,6.273,0,0,1,1.112-1.676c1.131-1.217,3.234-3.657,2.6-4.348-.493-.535-1.28-1.933-2.344-3.541C655.974,158.583,654.737,157.252,654.919,156.245Z" transform="translate(-342.909 -103.197)" opacity="0.1"/>
      <circle id="Ellipse_53" data-name="Ellipse 53" cx="1.308" cy="1.308" r="1.308" transform="translate(311.995 81.934)" fill="#444053"/>
      <circle id="Ellipse_54" data-name="Ellipse 54" cx="1.308" cy="1.308" r="1.308" transform="translate(311.995 90.055)" fill="#444053"/>
      <path id="Path_6715" data-name="Path 6715" d="M759.47,407.6c-.753.178-4.325.1-5.949.453v-.1l-.3-2.468c1.831-.228,5.811-.662,6.35-.207C760.268,405.875,760.368,407.4,759.47,407.6Z" transform="translate(-429.177 -307.819)" fill="#67647e"/>
      <path id="Path_6716" data-name="Path 6716" d="M759.47,408.6c-.753.178-4.325.1-5.949.453v-.1l-.3-2.468c1.831-.228,5.811-.662,6.35-.207C760.268,406.875,760.368,408.4,759.47,408.6Z" transform="translate(-429.177 -308.641)" opacity="0.1"/>
      <path id="Path_6717" data-name="Path 6717" d="M759.47,407.6c-.753.178-4.325.1-5.949.453v-.1l-.3-2.468c1.831-.228,5.811-.662,6.35-.207C760.268,405.875,760.368,407.4,759.47,407.6Z" transform="translate(-429.177 -307.819)" opacity="0.1"/>
      <circle id="Ellipse_55" data-name="Ellipse 55" cx="0.789" cy="0.789" r="0.789" transform="translate(328.726 97.803)" fill="#444053"/>
      <path id="Path_6718" data-name="Path 6718" d="M700.38,430.19l3.332,11.364s.892.416.892-.327S700.38,430.19,700.38,430.19Z" transform="translate(-385.768 -328.447)" fill="#fff" opacity="0.1"/>
      <path id="Path_6719" data-name="Path 6719" d="M656.11,137.268a7.118,7.118,0,0,1-.659.469c-1.133.714-2.142,1.683-3.586,1.683a7.306,7.306,0,0,1-2.358-.387c-.682-2.65-1.458-4.931-1.458-4.931s8.724-8.162,8.09-1.489C655.917,134.965,655.776,136.086,656.11,137.268Z" transform="translate(-342.778 -81.826)" opacity="0.1"/>
      <path id="Path_6720" data-name="Path 6720" d="M643.027,106.038a7.295,7.295,0,1,1-2.136-5.192A7.328,7.328,0,0,1,643.027,106.038Z" transform="translate(-326.61 -56.129)" fill="#efb7b9"/>
      <path id="Path_6721" data-name="Path 6721" d="M594.378,153.625a.853.853,0,0,1-.343.4l-1.164.714-2.176,1.323-3.443,2.092q-.121.071-.246.134a2.963,2.963,0,0,1-2.611.036,2.142,2.142,0,0,1-1.219-1.521,2.54,2.54,0,0,1,.932-2.5.133.133,0,0,1,.064-.032,6.334,6.334,0,0,0,2.035-1l2.167-1.5,1.935-1.769.978-.676a.912.912,0,0,1,.983-.036C593.278,149.869,595.27,151.37,594.378,153.625Z" transform="translate(-289.443 -97.583)" fill="#e1e7ef"/>
      <path id="Path_6722" data-name="Path 6722" d="M615.7,158.543l-2.176,1.323a8.663,8.663,0,0,0-2.608-4.093l2.22-1.963C614.829,154.647,615.5,157.444,615.7,158.543Z" transform="translate(-312.275 -101.395)" fill="#a36468"/>
      <path id="Path_6723" data-name="Path 6723" d="M587.006,181.874a2.963,2.963,0,0,1-2.611.036,2.142,2.142,0,0,1-1.219-1.521,2.54,2.54,0,0,1,.932-2.5,5.485,5.485,0,0,1,1.481.93,4.162,4.162,0,0,1,1.281,2.017A4.28,4.28,0,0,1,587.006,181.874Z" transform="translate(-289.443 -121.177)" opacity="0.1"/>
      <path id="Path_6724" data-name="Path 6724" d="M649.221,106.039a7.3,7.3,0,0,1-.682,3.089,4.136,4.136,0,0,0-.985,1.563,5,5,0,0,1-1.355,1.362c-.266-.28-.864-.45-.973-.812a9.687,9.687,0,0,1-.105-2.9c0-.432-.061-.942-.441-1.149a1.076,1.076,0,0,0-1.024.125,2.741,2.741,0,0,1-.976.443,1.505,1.505,0,0,1-1.324-.759c-.3-.443-.473-.96-.757-1.414a6.534,6.534,0,0,0-1.472-1.5c-.623-.514-1.228-1.083-1.892-1.544-.4-.277-.871-.405-1.262-.684l-.062-.046a7.328,7.328,0,0,1,13.311,4.232Z" transform="translate(-332.805 -56.13)" opacity="0.1"/>
      <path id="Path_6725" data-name="Path 6725" d="M629.59,85.122a2.3,2.3,0,0,1,2.045-2.013,5.217,5.217,0,0,1,2.351.966,5.937,5.937,0,0,0,5.062.178,3.148,3.148,0,0,1,1.449-.435,2.157,2.157,0,0,1,1.267.714,8.479,8.479,0,0,1,1.922,2.909,2.484,2.484,0,0,0,.489.9,3.3,3.3,0,0,0,.61.405,3.356,3.356,0,0,1,1.442,2.172,4.783,4.783,0,0,1-.262,2.633,4,4,0,0,1-.953,1.528c-.325.305-.714.535-1.055.821a4.212,4.212,0,0,0-1.428,3.905,2.017,2.017,0,0,1-2.142-1.563,9.514,9.514,0,0,1-.105-2.9c0-.432-.061-.942-.441-1.149a1.076,1.076,0,0,0-1.025.125,2.741,2.741,0,0,1-.976.443A1.5,1.5,0,0,1,636.517,94c-.3-.444-.471-.96-.757-1.414a6.5,6.5,0,0,0-1.472-1.5c-.623-.512-1.228-1.083-1.89-1.544-.4-.277-.873-.405-1.264-.684A4.489,4.489,0,0,1,629.59,85.122Z" transform="translate(-327.613 -43.312)" fill="#585268"/>
      <path id="Path_6726" data-name="Path 6726" d="M660.123,163s-.1.023-.273.071A.536.536,0,0,1,660.123,163Z" transform="translate(-352.472 -108.945)" opacity="0.1"/>
      <g id="Group_1275" data-name="Group 1275" transform="translate(301.977 40.491)" opacity="0.1">
        <path id="Path_6727" data-name="Path 6727" d="M640.749,100.859a9.689,9.689,0,0,1-.105-2.9c0-.432-.061-.942-.441-1.149a1.08,1.08,0,0,0-1.024.125,2.774,2.774,0,0,1-.976.443,1.5,1.5,0,0,1-1.324-.757c-.3-.443-.471-.962-.757-1.415a6.606,6.606,0,0,0-1.473-1.5c-.623-.512-1.228-1.083-1.89-1.544-.4-.277-.873-.4-1.264-.684a4.481,4.481,0,0,1-1.547-3.736,2.52,2.52,0,0,1,.236-.735,2.574,2.574,0,0,0-.593,1.278,4.461,4.461,0,0,0,1.547,3.736c.391.28.866.407,1.264.684.662.46,1.267,1.032,1.89,1.544a6.606,6.606,0,0,1,1.472,1.5c.286.453.455.973.757,1.415a1.51,1.51,0,0,0,1.324.757,2.815,2.815,0,0,0,.976-.443,1.1,1.1,0,0,1,1.024-.125,1.22,1.22,0,0,1,.441,1.149,9.471,9.471,0,0,0,.105,2.9,2.006,2.006,0,0,0,2.142,1.563,4.061,4.061,0,0,1-.057-.507A2.2,2.2,0,0,1,640.749,100.859Z" transform="translate(-629.59 -87)"/>
        <path id="Path_6728" data-name="Path 6728" d="M708.865,145.468c-.325.307-.714.535-1.055.821a4.037,4.037,0,0,0-.93,1.124,3.8,3.8,0,0,1,.573-.589c.343-.286.73-.514,1.055-.821a3.528,3.528,0,0,0,.65-.853A3.1,3.1,0,0,1,708.865,145.468Z" transform="translate(-693.085 -134.771)"/>
      </g>
      <path id="Path_6729" data-name="Path 6729" d="M658.8,490.894a4.677,4.677,0,0,0-.341,1.174c-.043.7.382,1.342.412,2.04a3.707,3.707,0,0,1-.928,2.2,1.654,1.654,0,0,0,1.453-.675,2.257,2.257,0,0,0,.209-.587c.505-2.015,1-4.219.118-6.1a2.745,2.745,0,0,0-.58-.871A15.783,15.783,0,0,1,658.8,490.894Z" transform="translate(-350.903 -375.996)" opacity="0.1"/>
      <path id="Path_6730" data-name="Path 6730" d="M573.5,389.024l-1.483-2a4.324,4.324,0,0,1-.855-1.574,8.042,8.042,0,0,1,.045-1.963v-.223a1.159,1.159,0,0,1,.068-.125,7.8,7.8,0,0,0,.618-1.758,2.144,2.144,0,0,1,.493.759c.691,1.685.052,3.662.623,5.39A7.709,7.709,0,0,1,573.5,389.024Z" transform="translate(-279.568 -288.348)" opacity="0.1"/>
      <path id="Path_6731" data-name="Path 6731" d="M605.67,763.55a6.327,6.327,0,0,0,5.13,1.015" transform="translate(-307.962 -602.308)" opacity="0.1"/>
      <path id="Path_6732" data-name="Path 6732" d="M674.53,763.557A3.759,3.759,0,0,0,680,763.2" transform="translate(-364.532 -602.021)" opacity="0.1"/>
      <path id="Path_6733" data-name="Path 6733" d="M613.587,606.909a3.377,3.377,0,0,1-3.707-1.638" transform="translate(-311.421 -472.278)" opacity="0.1"/>
      <path id="Path_6734" data-name="Path 6734" d="M678.05,635.694a4.927,4.927,0,0,0,3.186-.875" transform="translate(-367.423 -496.554)" opacity="0.1"/>
      <path id="Path_6735" data-name="Path 6735" d="M619.436,700.12c-.951.386-1.8.989-2.727,1.428a4.182,4.182,0,0,1-2.979.419" transform="translate(-314.583 -550.199)" opacity="0.1"/>
      <rect id="Rectangle_148" data-name="Rectangle 148" width="1.116" height="34.054" transform="translate(286.41 97.121)" fill="#9d9cb5"/>
      <rect id="Rectangle_149" data-name="Rectangle 149" width="1.117" height="34.054" transform="translate(289.875 97.121)" fill="#9d9cb5"/>
      <circle id="Ellipse_56" data-name="Ellipse 56" cx="1.908" cy="1.908" r="1.908" transform="translate(282.034 162.405)" fill="#535461"/>
      <path id="Path_6736" data-name="Path 6736" d="M490.71,581.114s1.9-1.547,3.57-1.012,6.008,1.071,6.782,3.807,0,32.781,0,32.781-3.7.96-4.7.477-.892-5-.892-5l-.3-26.645Z" transform="translate(-213.52 -451.509)" fill="#6c63ff"/>
      <path id="Path_6737" data-name="Path 6737" d="M490.71,581.114s1.9-1.547,3.57-1.012,6.008,1.071,6.782,3.807,0,32.781,0,32.781-3.7.96-4.7.477-.892-5-.892-5l-.3-26.645Z" transform="translate(-213.52 -451.509)" opacity="0.1"/>
      <path id="Path_6738" data-name="Path 6738" d="M534.8,618.445l-8.008,1.785L526.7,618.8l-.052-28.034A8.544,8.544,0,0,0,523.3,584h0a20.08,20.08,0,0,1,7.318,1.378c.678.305,1.358.605,2.056.862a2.841,2.841,0,0,1,2.115,2.342c.1,1.749.432,19.076.551,25.383A16.024,16.024,0,0,1,534.8,618.445Z" transform="translate(-240.293 -454.803)" fill="#6c63ff"/>
      <rect id="Rectangle_150" data-name="Rectangle 150" width="1.86" height="2.915" transform="translate(285.891 94.592)" fill="#535461"/>
      <rect id="Rectangle_151" data-name="Rectangle 151" width="1.86" height="2.915" transform="translate(285.891 94.592)" opacity="0.1"/>
      <rect id="Rectangle_152" data-name="Rectangle 152" width="1.86" height="2.915" transform="translate(289.386 95.052)" fill="#535461"/>
      <path id="Path_6739" data-name="Path 6739" d="M544.772,387.574h-1.865a1.849,1.849,0,0,0-1.637,1.085c-.027.057-.052.116-.075.178l-.411-.4-.853-.825-.521-.5S542.853,385.374,544.772,387.574Z" transform="translate(-253.528 -292.522)" fill="#535461"/>
      <circle id="Ellipse_57" data-name="Ellipse 57" cx="1.908" cy="1.908" r="1.908" transform="translate(290.148 163.749)" fill="#535461"/>
      <circle id="Ellipse_58" data-name="Ellipse 58" cx="1.908" cy="1.908" r="1.908" transform="translate(270.447 161.145)" fill="#535461"/>
      <path id="Path_6740" data-name="Path 6740" d="M455.778,584s-5.415,1.428-5.711,15.053-.357,15.051-.357,15.051.118,3.927,8.091,6.366h4.878l.775-31.295S462.561,584.409,455.778,584Z" transform="translate(-179.838 -454.805)" fill="#6c63ff"/>
      <path id="Path_6741" data-name="Path 6741" d="M480.533,614.223s-1.387-19.051,6.09-19.133l.7.682S480.777,593.4,480.533,614.223Z" transform="translate(-205.076 -463.915)" opacity="0.1"/>
      <circle id="Ellipse_59" data-name="Ellipse 59" cx="1.908" cy="1.908" r="1.908" transform="translate(276.917 165.413)" fill="#535461"/>
      <path id="Path_6742" data-name="Path 6742" d="M549.25,391.27a.025.025,0,0,1,0,.011h-.027a1.849,1.849,0,0,0-1.637,1.085c-.027.057-.052.116-.075.179l-.411-.4a.689.689,0,0,1,0-.105,1.071,1.071,0,0,1,.4-.7,1.606,1.606,0,0,1,1.551-.28C549.16,391.1,549.269,391.17,549.25,391.27Z" transform="translate(-259.844 -296.229)" opacity="0.1"/>
    </g>
  </g>
</svg>
